<svg width="38" height="38" viewBox="0 0 38 38" fill="none" xmlns="http://www.w3.org/2000/svg">
<path d="M26.9958 27.36C25.4441 28.8642 23.7499 28.6267 22.1191 27.9142C20.3933 27.1858 18.8099 27.1542 16.9891 27.9142C14.7091 28.8958 13.5058 28.6108 12.1441 27.36C4.41743 19.3958 5.55743 7.2675 14.3291 6.82417C16.4666 6.935 17.9549 7.99583 19.2058 8.09083C21.0741 7.71083 22.8633 6.61833 24.8583 6.76083C27.2491 6.95083 29.0541 7.90083 30.2416 9.61083C25.3016 12.5717 26.4733 19.0792 31.0016 20.9C30.0991 23.275 28.9274 25.6342 26.9799 27.3758L26.9958 27.36ZM19.0474 6.72917C18.8099 3.19833 21.6758 0.285 24.9691 0C25.4283 4.085 21.2641 7.125 19.0474 6.72917Z" fill="white"/>
</svg>
